<svg width="281" height="289" fill="none" xmlns="http://www.w3.org/2000/svg"><g clip-path="url(#clip0_101_32)"><mask id="a" style="mask-type:alpha" maskUnits="userSpaceOnUse" x="-524" y="-819" width="1440" height="4120"><path d="M916-819H-524v4120H916V-819z" fill="#fff"/></mask><g mask="url(#a)"><path fill-rule="evenodd" clip-rule="evenodd" d="M450-274l-800 800 1.414 1.414 800-800L450-274zm-939 800.5l800-800 1.414 1.414-800 800L-489 526.5zm68 .5l800-800 1.414 1.414-800 800L-421 527zm139-.5l800-800 1.414 1.414-800 800L-282 526.5zM479-268l-800 800 1.414 1.414 800-800L479-268zm-939 800.5l800-800 1.414 1.414-800 800L-460 532.5zm68 .5l800-800 1.414 1.414-800 800L-392 533zm139-.5l800-800 1.414 1.414-800 800L-253 532.5z" fill="#DDA162"/></g></g><defs><clipPath id="clip0_101_32"><path fill="#fff" d="M0 0h281v289H0z"/></clipPath></defs></svg>