<svg width="289" height="281" fill="none" xmlns="http://www.w3.org/2000/svg"><g clip-path="url(#clip0_95_141)"><path fill-rule="evenodd" clip-rule="evenodd" d="M932-504L132 296l1.414 1.414 800-800L932-504zM-7 296.5l800-800 1.414 1.414-800 800L-7 296.5zm68 .5l800-800 1.414 1.414-800 800L61 297zm139-.5l800-800 1.41 1.414-799.996 800L200 296.5zM961-498L161 302l1.414 1.414 800-800L961-498zM22 302.5l800-800 1.414 1.414-800 800L22 302.5zm68 .5l800-800 1.414 1.414-800 800L90 303zm139-.5l800-800 1.41 1.414-799.996 800L229 302.5z" fill="#DDA162"/></g><defs><clipPath id="clip0_95_141"><path fill="#fff" d="M0 0h289v281H0z"/></clipPath></defs></svg>