<svg width="80" height="80" fill="none" xmlns="http://www.w3.org/2000/svg"><g clip-path="url(#clip0_60_96)"><path d="M80 0H0v80h80V0z" fill="#DDA162"/><path d="M15 50.067v-8.214h.505l3.813 6.583h-.27l3.802-6.583h.492l.012 8.214h-.587l-.011-7.31h.164l-3.602 6.218h-.294l-3.613-6.218h.176v7.31H15zm11.746-4.435h4.447v.528h-4.447v-.528zm.07 3.895h5.069v.54h-5.667v-8.214h5.49v.54h-4.892v7.134zm7.25.54v-8.214h3.427c.884 0 1.576.18 2.077.54.5.36.75.88.75 1.56 0 .447-.105.822-.316 1.127a1.953 1.953 0 01-.88.692 3.294 3.294 0 01-1.244.223l.211-.234c.563 0 1.044.082 1.443.246.4.164.7.403.904.716.211.313.317.704.317 1.173 0 .688-.25 1.224-.751 1.608-.5.375-1.26.563-2.276.563h-3.661zm.6-.517h3.062c.79 0 1.392-.133 1.806-.398.415-.274.622-.708.622-1.303 0-.587-.207-1.013-.622-1.279-.414-.274-1.017-.41-1.806-.41h-3.133v-.517h2.874c.712 0 1.264-.137 1.655-.41.39-.274.586-.685.586-1.232 0-.54-.195-.947-.586-1.22-.391-.274-.943-.411-1.655-.411h-2.804v7.18zm8.224.517v-8.214h.598v7.674h4.729v.54h-5.328zm7.391-4.435h4.447v.528h-4.447v-.528zm.07 3.895h5.07v.54h-5.668v-8.214h5.492v.54h-4.893v7.134zm7.25.54v-8.214h.505l5.855 7.474h-.27v-7.474h.599v8.214h-.493l-5.867-7.474h.27v7.474h-.598zM17.688 62.333V54.12h3.25c.868 0 1.631.176 2.288.528a3.8 3.8 0 011.525 1.455c.368.618.552 1.326.552 2.124s-.184 1.505-.552 2.123a3.798 3.798 0 01-1.525 1.455c-.657.352-1.42.528-2.288.528h-3.25zm.598-.54h2.605c.774 0 1.447-.152 2.018-.457a3.312 3.312 0 001.326-1.255c.313-.54.47-1.158.47-1.854 0-.696-.157-1.31-.47-1.842a3.287 3.287 0 00-1.326-1.268c-.57-.305-1.244-.457-2.018-.457h-2.605v7.134zm9.624-3.895h4.447v.528H27.91v-.528zm.07 3.896h5.069v.54H27.38V54.12h5.49v.54h-4.89v7.134zm9.41.598a4.95 4.95 0 01-1.737-.305c-.54-.211-.958-.481-1.255-.81l.27-.446c.281.29.664.536 1.15.74a4.19 4.19 0 001.56.293c.547 0 .993-.07 1.337-.211.352-.149.61-.344.775-.587.172-.242.258-.512.258-.81 0-.352-.094-.633-.282-.844a1.968 1.968 0 00-.739-.505 6.773 6.773 0 00-.997-.317c-.36-.086-.724-.176-1.091-.27a5.302 5.302 0 01-1.01-.387 2.009 2.009 0 01-.739-.633c-.18-.274-.27-.626-.27-1.056 0-.391.102-.751.306-1.08.203-.328.52-.594.95-.798.43-.203.982-.305 1.654-.305.454 0 .9.067 1.338.2.446.133.825.313 1.138.54l-.223.48a3.707 3.707 0 00-1.114-.516 3.953 3.953 0 00-1.139-.176c-.524 0-.958.075-1.302.223-.344.149-.598.348-.763.599a1.431 1.431 0 00-.246.821c0 .352.09.634.27.845.188.211.434.38.739.504.305.125.641.231 1.01.317.367.086.73.18 1.09.282.36.094.693.219.998.375.305.157.551.368.739.634.188.266.281.61.281 1.032 0 .384-.105.743-.316 1.08-.212.328-.536.594-.974.798-.43.195-.986.293-1.666.293zm4.99-.059V54.12h.6v8.213h-.6zm6.97.059a4.7 4.7 0 01-1.714-.305 4.258 4.258 0 01-1.372-.88 3.99 3.99 0 01-.892-1.314 4.3 4.3 0 01-.317-1.666c0-.603.106-1.154.317-1.655a3.88 3.88 0 01.903-1.326 4.13 4.13 0 011.361-.868 4.573 4.573 0 011.725-.317c.595 0 1.146.094 1.654.282.509.188.943.47 1.303.845l-.376.399a3.17 3.17 0 00-1.185-.751 4.146 4.146 0 00-1.384-.223c-.532 0-1.025.09-1.479.27a3.547 3.547 0 00-1.97 1.912 3.73 3.73 0 00-.27 1.432c0 .516.09.993.27 1.431a3.542 3.542 0 001.97 1.913c.454.18.947.27 1.479.27a4.17 4.17 0 001.373-.223 3.22 3.22 0 001.196-.74l.34.458a3.598 3.598 0 01-1.325.798 4.976 4.976 0 01-1.608.258zm2.358-1.115v-3.015h.575v3.074l-.575-.059zm3.208 1.056V54.12h.504l5.855 7.474h-.27V54.12h.599v8.213h-.493l-5.867-7.474h.27v7.474h-.598z" fill="#fff"/><path d="M16.714 39.933L39.648 17 62.58 39.933M48.714 18.067v5.6l4.267 4.266v-9.866h-4.267z" stroke="#fff"/></g><defs><clipPath id="clip0_60_96"><path fill="#fff" d="M0 0h80v80H0z"/></clipPath></defs></svg>