<svg width="80" height="80" fill="none" xmlns="http://www.w3.org/2000/svg"><g clip-path="url(#clip0_130_29)"><path d="M80 0H0v80h80V0z" fill="#DDA162"/><path d="M15.319 52.907h.545v5.226h-.545v-5.226zm-3.27 5.226h-.553v-5.226h.553v5.226zm3.322-2.411H11.99v-.486h3.382v.486zm3.685 2.449c-.379 0-.72-.085-1.023-.254a1.94 1.94 0 01-.71-.71 2.048 2.048 0 01-.26-1.037c0-.394.086-.74.26-1.038a1.88 1.88 0 01.71-.702 2.04 2.04 0 011.023-.254c.388 0 .732.085 1.03.254.304.169.54.403.71.702.174.298.26.645.26 1.038 0 .388-.086.734-.26 1.038a1.88 1.88 0 01-.71.709 2.08 2.08 0 01-1.03.254zm0-.47c.284 0 .535-.063.754-.187.219-.13.39-.31.515-.538a1.64 1.64 0 00.194-.806c0-.31-.064-.578-.194-.807a1.32 1.32 0 00-.515-.53 1.438 1.438 0 00-.747-.194c-.278 0-.527.064-.746.194a1.372 1.372 0 00-.523.53 1.61 1.61 0 00-.194.807c0 .303.064.572.194.806.13.229.304.408.523.538.219.124.465.186.739.186zm7.981-3.525c.319 0 .595.062.83.187.238.12.422.303.552.552.134.25.201.563.201.941v2.277h-.53v-2.225c0-.413-.1-.724-.299-.933-.194-.214-.47-.321-.828-.321-.27 0-.503.057-.702.172a1.134 1.134 0 00-.456.485 1.69 1.69 0 00-.157.761v2.061h-.53v-2.225c0-.413-.1-.724-.298-.933-.2-.214-.478-.321-.837-.321-.263 0-.495.057-.694.172-.2.109-.353.271-.463.485a1.69 1.69 0 00-.157.761v2.061h-.53v-3.92h.508v1.06l-.082-.186c.12-.284.31-.505.575-.665.268-.164.585-.246.948-.246.383 0 .71.097.978.291.269.19.443.475.523.859l-.21-.082c.115-.319.317-.575.605-.77.294-.198.645-.298 1.053-.298zm4.686 3.995c-.408 0-.767-.085-1.075-.254a1.908 1.908 0 01-.724-.71 2.048 2.048 0 01-.262-1.037c0-.389.082-.732.247-1.03a1.893 1.893 0 011.672-.963 1.86 1.86 0 01.978.253c.289.164.516.398.68.702.164.298.246.645.246 1.038a.508.508 0 01-.007.082v.082h-3.413v-.396h3.129l-.21.157a1.5 1.5 0 00-.186-.754 1.313 1.313 0 00-1.217-.71c-.269 0-.51.063-.724.187-.214.124-.38.299-.5.523-.12.224-.18.48-.18.769v.082c0 .299.065.563.195.791.134.225.318.401.552.53.239.125.51.187.814.187.239 0 .46-.042.665-.127.209-.084.388-.214.537-.388l.299.343a1.65 1.65 0 01-.657.478c-.26.11-.545.165-.859.165zm6.177.007a2.35 2.35 0 01-.904-.164 1.563 1.563 0 01-.627-.47 1.125 1.125 0 01-.224-.695c0-.224.05-.428.15-.612.099-.19.258-.373.477-.553.224-.184.52-.376.889-.575a8.04 8.04 0 00.731-.448c.18-.13.307-.25.381-.366a.706.706 0 00.112-.38.599.599 0 00-.201-.47c-.13-.12-.316-.18-.56-.18-.264 0-.468.067-.613.202a.65.65 0 00-.216.507.99.99 0 00.045.3c.034.093.097.198.186.313.095.114.224.258.389.433l2.762 2.844-.306.352-2.882-2.965a6.757 6.757 0 01-.418-.478c-.1-.139-.17-.271-.21-.395a1.291 1.291 0 01-.059-.396c0-.224.052-.418.157-.582.11-.17.264-.3.463-.389.199-.094.433-.142.702-.142.244 0 .455.043.634.127a.93.93 0 01.426.351.97.97 0 01.157.56c0 .19-.047.366-.142.53a1.62 1.62 0 01-.448.486 7.46 7.46 0 01-.851.522 5.818 5.818 0 00-.747.478c-.18.145-.306.287-.38.426a.906.906 0 00-.113.448c0 .19.052.356.157.5.11.14.259.25.448.329.194.074.416.112.664.112.349 0 .66-.072.934-.217.274-.145.503-.363.687-.657.189-.294.326-.662.41-1.105l.426.134c-.095.498-.256.916-.485 1.255a2.281 2.281 0 01-.852.769 2.473 2.473 0 01-1.15.261zm7.971 0a3.06 3.06 0 01-1.105-.194 2.71 2.71 0 01-.873-.56 2.618 2.618 0 01-.575-.844 2.737 2.737 0 01-.202-1.06c0-.384.068-.737.202-1.06a2.562 2.562 0 011.456-1.397 2.968 2.968 0 011.105-.201c.398 0 .762.062 1.09.186.334.125.617.314.851.568l-.343.35a1.948 1.948 0 00-.724-.47 2.508 2.508 0 00-.852-.141c-.323 0-.622.055-.896.164a2.094 2.094 0 00-.709.455 2.137 2.137 0 00-.47.687c-.11.259-.165.545-.165.859 0 .309.055.595.165.859.114.264.271.495.47.694.204.194.44.346.71.456.273.104.57.156.888.156.299 0 .58-.044.844-.134a1.97 1.97 0 00.739-.456l.314.419a2.57 2.57 0 01-.874.5c-.334.11-.682.164-1.046.164zm1.39-.732V55.52h.53v1.994l-.53-.068zm4.438.687v-.866l-.023-.142v-1.448c0-.334-.094-.59-.283-.77-.184-.178-.46-.268-.83-.268a2.06 2.06 0 00-.723.127c-.23.085-.424.197-.583.336l-.239-.396c.2-.169.438-.299.717-.388.279-.094.572-.142.881-.142.508 0 .899.127 1.172.38.28.25.419.63.419 1.143v2.434h-.508zm-1.352.038a1.93 1.93 0 01-.769-.142 1.177 1.177 0 01-.492-.403 1.063 1.063 0 01-.172-.598c0-.204.047-.388.142-.552.1-.17.259-.304.477-.404.224-.104.523-.156.896-.156h1.352v.396h-1.337c-.378 0-.642.067-.791.201a.656.656 0 00-.217.5c0 .224.087.404.262.538.174.134.418.201.731.201.3 0 .555-.067.77-.201.219-.14.378-.339.477-.597l.12.365a1.24 1.24 0 01-.523.62c-.244.154-.552.232-.926.232zm3.3-.038v-3.92h.507v1.068l-.052-.187c.11-.298.294-.525.552-.68.26-.159.58-.238.964-.238v.515h-.06a.25.25 0 00-.06-.007c-.413 0-.736.127-.97.38-.234.25-.352.605-.352 1.068v2.001h-.53zm4.462.038a2.01 2.01 0 01-1.008-.254 1.84 1.84 0 01-.694-.702 2.107 2.107 0 01-.254-1.045c0-.399.084-.747.254-1.046.169-.298.4-.53.694-.694a2.01 2.01 0 011.008-.254c.344 0 .65.077.919.231.273.155.49.381.65.68.164.294.246.654.246 1.083 0 .422-.08.784-.24 1.082a1.69 1.69 0 01-.649.687 1.829 1.829 0 01-.926.232zm.038-.47c.278 0 .527-.063.746-.187.224-.13.398-.31.523-.538.129-.234.194-.503.194-.806 0-.31-.065-.578-.194-.807a1.31 1.31 0 00-.523-.53 1.44 1.44 0 00-.746-.194 1.425 1.425 0 00-1.262.724c-.13.229-.194.498-.194.807 0 .303.064.572.194.806.129.229.303.408.522.538.22.124.466.186.74.186zm1.478.432v-1.18l.052-.79-.074-.792v-2.778h.53v5.54h-.508zm3.65.038c-.409 0-.767-.085-1.076-.254a1.908 1.908 0 01-.724-.71 2.046 2.046 0 01-.262-1.037c0-.389.082-.732.247-1.03a1.894 1.894 0 011.672-.963 1.86 1.86 0 01.978.253c.289.164.516.398.68.702.164.298.246.645.246 1.038a.52.52 0 01-.007.082v.082h-3.412v-.396h3.128l-.209.157c0-.284-.062-.535-.187-.754a1.313 1.313 0 00-1.217-.71c-.269 0-.51.063-.724.187-.214.124-.38.299-.5.523-.12.224-.18.48-.18.769v.082c0 .299.065.563.195.791.134.225.318.401.552.53.24.125.51.187.814.187.239 0 .46-.042.665-.127.209-.084.388-.214.537-.388l.299.343c-.175.21-.393.37-.657.478-.259.11-.545.165-.859.165zm4.841-3.995c.319 0 .598.062.837.187.243.12.433.303.567.552.14.25.209.563.209.941v2.277h-.53v-2.225c0-.413-.105-.724-.314-.933-.204-.214-.493-.321-.866-.321-.279 0-.523.057-.732.172a1.145 1.145 0 00-.477.485c-.11.209-.165.463-.165.761v2.061h-.53v-3.92h.508v1.075l-.082-.201a1.41 1.41 0 01.597-.665c.274-.164.6-.246.978-.246zM10.733 33.6v-9.707h.846l4.437 7.572h-.444l4.396-7.572h.846V33.6h-.985v-8.168h.236l-4.049 6.934h-.485l-4.077-6.933h.263V33.6h-.984zm14.159-5.366h5.13v.873h-5.13v-.873zm.11 4.478h5.839v.888h-6.864v-9.707h6.656v.888h-5.63v7.931zm8.25.888v-9.707h4.188c1.082 0 1.919.218 2.51.652.601.435.902 1.05.902 1.844 0 .527-.125.971-.375 1.332a2.24 2.24 0 01-.998.818 3.342 3.342 0 01-1.373.277l.236-.333c.62 0 1.15.097 1.594.291.453.185.805.467 1.054.846.25.37.375.832.375 1.387 0 .823-.305 1.46-.916 1.913-.6.453-1.511.68-2.731.68h-4.465zm1.027-.846h3.425c.85 0 1.502-.143 1.955-.43.453-.296.68-.762.68-1.4 0-.629-.227-1.087-.68-1.373-.453-.296-1.105-.444-1.955-.444h-3.536v-.846h3.203c.777 0 1.377-.148 1.803-.443.434-.296.651-.735.651-1.318 0-.591-.217-1.03-.651-1.317-.425-.296-1.026-.444-1.803-.444H34.28v8.015zm9.428.846v-9.707h1.026v8.82h5.436v.887h-6.462zm9.08-5.366h5.131v.873h-5.13v-.873zm.112 4.478h5.837v.888h-6.863v-9.707h6.656v.888h-5.63v7.931zm8.25.888v-9.707h.845l6.698 8.431h-.444v-8.43h1.012V33.6h-.846l-6.683-8.43h.443v8.43h-1.026zM13.853 47.467V37.76h3.952c1.036 0 1.942.208 2.718.624a4.47 4.47 0 011.83 1.706c.435.73.652 1.571.652 2.523 0 .953-.217 1.794-.651 2.524a4.564 4.564 0 01-1.83 1.72c-.777.406-1.683.61-2.719.61h-3.952zm1.026-.888h2.87c.86 0 1.605-.166 2.233-.499a3.739 3.739 0 001.484-1.4c.351-.601.527-1.29.527-2.067 0-.785-.176-1.474-.527-2.066a3.645 3.645 0 00-1.484-1.386c-.628-.343-1.373-.514-2.232-.514h-2.87v7.932zM26.226 42.1h5.13v.874h-5.13V42.1zm.11 4.48h5.839v.887H25.31V37.76h6.655v.888h-5.63v7.931zm10.927.97a6.296 6.296 0 01-2.08-.347c-.657-.24-1.165-.545-1.526-.915l.403-.79c.342.332.8.614 1.372.846a5.1 5.1 0 001.83.332c.61 0 1.105-.074 1.484-.222.389-.157.67-.365.846-.624.185-.258.278-.545.278-.86 0-.378-.111-.683-.333-.914a2.12 2.12 0 00-.846-.541 8.654 8.654 0 00-1.165-.36c-.425-.103-.85-.209-1.276-.32a5.81 5.81 0 01-1.178-.471 2.538 2.538 0 01-.86-.763c-.213-.323-.319-.744-.319-1.262 0-.48.125-.92.375-1.317.258-.407.651-.73 1.178-.97.527-.25 1.202-.375 2.025-.375a5.71 5.71 0 011.622.236 4.53 4.53 0 011.387.623l-.347.819a4.567 4.567 0 00-1.331-.61 4.98 4.98 0 00-1.345-.195c-.583 0-1.063.079-1.442.236-.38.157-.661.37-.846.638a1.544 1.544 0 00-.264.888c0 .379.107.684.32.915.221.23.508.411.86.54.36.13.752.245 1.178.347.425.102.846.213 1.262.333.425.12.813.277 1.164.471.361.185.648.435.86.75.222.313.333.725.333 1.233 0 .472-.13.91-.388 1.318-.26.397-.657.72-1.193.97-.527.24-1.206.36-2.038.36zm5.855-.083V37.76h1.026v9.707h-1.026zm8.441.083a5.7 5.7 0 01-2.052-.36 5.033 5.033 0 01-1.622-1.04 4.862 4.862 0 01-1.068-1.568 5.083 5.083 0 01-.375-1.969c0-.712.125-1.368.375-1.969.259-.6.62-1.123 1.081-1.567a4.849 4.849 0 011.623-1.026 5.512 5.512 0 012.052-.374c.74 0 1.414.115 2.025.346.62.232 1.146.583 1.58 1.054l-.637.652a3.63 3.63 0 00-1.345-.873 4.65 4.65 0 00-1.581-.264c-.601 0-1.156.102-1.664.305a3.87 3.87 0 00-1.318.846c-.37.36-.66.786-.873 1.276a4.054 4.054 0 00-.305 1.594c0 .574.101 1.105.305 1.595.212.49.504.92.873 1.29.38.36.819.642 1.318.846a4.588 4.588 0 001.65.29 4.84 4.84 0 001.567-.249c.5-.166.957-.448 1.373-.846l.582.777a4.773 4.773 0 01-1.622.929 6.184 6.184 0 01-1.942.305zm2.58-1.36v-3.577h.984v3.703l-.984-.125zm3.888 1.277V37.76h.846l6.698 8.43h-.444v-8.43h1.012v9.707h-.846l-6.683-8.431h.443v8.43h-1.026z" fill="#fff"/></g><defs><clipPath id="clip0_130_29"><path fill="#fff" d="M0 0h80v80H0z"/></clipPath></defs></svg>