<svg width="289" height="281" viewBox="0 0 289 281" fill="none" xmlns="http://www.w3.org/2000/svg">
<g clip-path="url(#clip0_95_141)">
<path fill-rule="evenodd" clip-rule="evenodd" d="M932 -504L132 296L133.414 297.414L933.414 -502.586L932 -504ZM-7 296.5L793 -503.5L794.414 -502.086L-5.58579 297.914L-7 296.5ZM61 297L861 -503L862.414 -501.586L62.4142 298.414L61 297ZM200 296.5L1000 -503.5L1001.41 -502.086L201.414 297.914L200 296.5ZM961 -498L161 302L162.414 303.414L962.414 -496.586L961 -498ZM22 302.5L822 -497.5L823.414 -496.086L23.4142 303.914L22 302.5ZM90 303L890 -497L891.414 -495.586L91.4142 304.414L90 303ZM229 302.5L1029 -497.5L1030.41 -496.086L230.414 303.914L229 302.5Z" fill="#DDA162"/>
</g>
<defs>
<clipPath id="clip0_95_141">
<rect width="289" height="281" fill="white"/>
</clipPath>
</defs>
</svg>
