<svg width="80" height="80" viewBox="0 0 80 80" fill="none" xmlns="http://www.w3.org/2000/svg">
<g clip-path="url(#clip0_130_29)">
<path d="M80 0H0V80H80V0Z" fill="#DDA162"/>
<path d="M15.3189 52.9067H15.864V58.1333H15.3189V52.9067ZM12.0485 58.1333H11.496V52.9067H12.0485V58.1333ZM15.3712 55.7216H11.9888V55.2363H15.3712V55.7216ZM19.0558 58.1707C18.6775 58.1707 18.3365 58.0859 18.0329 57.9168C17.7342 57.7424 17.4977 57.5061 17.3235 57.2075C17.1493 56.904 17.0622 56.5579 17.0622 56.1696C17.0622 55.7765 17.1493 55.4304 17.3235 55.1317C17.4977 54.8331 17.7342 54.5989 18.0329 54.4299C18.3315 54.2608 18.6725 54.176 19.0558 54.176C19.4441 54.176 19.7875 54.2608 20.0862 54.4299C20.3898 54.5989 20.6263 54.8331 20.7955 55.1317C20.9697 55.4304 21.0569 55.7765 21.0569 56.1696C21.0569 56.5579 20.9697 56.904 20.7955 57.2075C20.6263 57.5061 20.3898 57.7424 20.0862 57.9168C19.7825 58.0859 19.4391 58.1707 19.0558 58.1707ZM19.0558 57.7003C19.3395 57.7003 19.5909 57.6379 19.8099 57.5136C20.0289 57.384 20.2007 57.2048 20.3251 56.976C20.4545 56.7419 20.5193 56.4731 20.5193 56.1696C20.5193 55.8608 20.4545 55.592 20.3251 55.3632C20.2007 55.1344 20.0289 54.9573 19.8099 54.8331C19.5909 54.7035 19.342 54.6389 19.0633 54.6389C18.7845 54.6389 18.5356 54.7035 18.3166 54.8331C18.0976 54.9573 17.9233 55.1344 17.7939 55.3632C17.6645 55.592 17.5998 55.8608 17.5998 56.1696C17.5998 56.4731 17.6645 56.7419 17.7939 56.976C17.9233 57.2048 18.0976 57.384 18.3166 57.5136C18.5356 57.6379 18.782 57.7003 19.0558 57.7003ZM27.0373 54.176C27.3559 54.176 27.6321 54.2384 27.8661 54.3627C28.105 54.4821 28.2892 54.6661 28.4186 54.9152C28.553 55.1643 28.6202 55.4779 28.6202 55.856V58.1333H28.0901V55.9083C28.0901 55.4949 27.9905 55.184 27.7914 54.9749C27.5973 54.7611 27.321 54.6539 26.9626 54.6539C26.6938 54.6539 26.4599 54.7109 26.2608 54.8256C26.0666 54.9349 25.9148 55.0971 25.8053 55.3109C25.7008 55.52 25.6485 55.7739 25.6485 56.0725V58.1333H25.1184V55.9083C25.1184 55.4949 25.0188 55.184 24.8197 54.9749C24.6206 54.7611 24.3418 54.6539 23.9834 54.6539C23.7196 54.6539 23.4881 54.7109 23.289 54.8256C23.0899 54.9349 22.9356 55.0971 22.8261 55.3109C22.7216 55.52 22.6693 55.7739 22.6693 56.0725V58.1333H22.1392V54.2133H22.6469V55.2736L22.5648 55.0869C22.6842 54.8032 22.8759 54.5819 23.1397 54.4224C23.4085 54.2581 23.7246 54.176 24.088 54.176C24.4713 54.176 24.7973 54.2731 25.0661 54.4672C25.3349 54.6565 25.5091 54.9424 25.5888 55.3259L25.3797 55.2437C25.4942 54.9253 25.6958 54.6688 25.9845 54.4747C26.2782 54.2757 26.6291 54.176 27.0373 54.176ZM31.723 58.1707C31.3148 58.1707 30.9564 58.0859 30.6478 57.9168C30.3392 57.7424 30.0977 57.5061 29.9235 57.2075C29.7493 56.904 29.6622 56.5579 29.6622 56.1696C29.6622 55.7813 29.7443 55.4379 29.9086 55.1392C30.0778 54.8405 30.3068 54.6064 30.5955 54.4373C30.8892 54.2629 31.2177 54.176 31.5811 54.176C31.9495 54.176 32.2755 54.2608 32.5593 54.4299C32.848 54.5941 33.0745 54.8283 33.2387 55.1317C33.403 55.4304 33.4851 55.7765 33.4851 56.1696C33.4851 56.1947 33.4826 56.2219 33.4777 56.2517C33.4777 56.2768 33.4777 56.304 33.4777 56.3339H30.0654V55.9381H33.1939L32.9849 56.0949C32.9849 55.8112 32.9226 55.56 32.7982 55.3408C32.6787 55.1168 32.5145 54.9424 32.3054 54.8181C32.0963 54.6939 31.8549 54.6315 31.5811 54.6315C31.3123 54.6315 31.0709 54.6939 30.8569 54.8181C30.6428 54.9424 30.4761 55.1168 30.3566 55.3408C30.2371 55.5648 30.1774 55.8213 30.1774 56.1099V56.192C30.1774 56.4907 30.2421 56.7547 30.3715 56.9835C30.5059 57.2075 30.6901 57.384 30.9241 57.5136C31.163 57.6379 31.4343 57.7003 31.7379 57.7003C31.9769 57.7003 32.1984 57.6581 32.4025 57.5733C32.6115 57.4885 32.7907 57.3595 32.9401 57.1851L33.2387 57.5285C33.0645 57.7376 32.8455 57.8971 32.5817 58.0064C32.3228 58.1157 32.0366 58.1707 31.723 58.1707ZM37.8996 58.1781C37.5612 58.1781 37.26 58.1232 36.9962 58.0139C36.7324 57.8992 36.5233 57.7424 36.369 57.5435C36.2197 57.3445 36.145 57.1131 36.145 56.8491C36.145 56.6251 36.1948 56.4208 36.2943 56.2368C36.3939 56.0475 36.5532 55.8635 36.7722 55.6843C36.9962 55.5003 37.2924 55.3083 37.6607 55.1093C37.9743 54.9349 38.2183 54.7856 38.3925 54.6613C38.5717 54.5317 38.6986 54.4101 38.7732 54.2955C38.8479 54.176 38.8852 54.0491 38.8852 53.9147C38.8852 53.7205 38.818 53.5637 38.6836 53.4443C38.5543 53.3248 38.3676 53.2651 38.1237 53.2651C37.8599 53.2651 37.6558 53.3323 37.5114 53.4667C37.3671 53.5963 37.2949 53.7653 37.2949 53.9744C37.2949 54.0789 37.3098 54.1787 37.3397 54.2731C37.3745 54.3675 37.4367 54.472 37.5263 54.5867C37.6209 54.7013 37.7503 54.8453 37.9146 55.0197L40.6772 57.8645L40.3711 58.2155L37.489 55.2512C37.3148 55.0672 37.1754 54.9077 37.0708 54.7733C36.9713 54.6341 36.9016 54.5019 36.8618 54.3776C36.822 54.2533 36.802 54.1211 36.802 53.9819C36.802 53.7579 36.8543 53.5637 36.9588 53.3995C37.0684 53.2302 37.2227 53.1008 37.4218 53.0112C37.6209 52.9166 37.8549 52.8693 38.1237 52.8693C38.3676 52.8693 38.5791 52.9116 38.7583 52.9963C38.9425 53.0759 39.0844 53.1929 39.1839 53.3472C39.2885 53.5013 39.3407 53.688 39.3407 53.9072C39.3407 54.0965 39.2935 54.2731 39.1989 54.4373C39.1093 54.6016 38.9599 54.7632 38.7508 54.9227C38.5418 55.0768 38.258 55.2512 37.8996 55.4453C37.586 55.6197 37.3372 55.7787 37.153 55.9232C36.9738 56.0677 36.8468 56.2096 36.7722 56.3488C36.6975 56.4832 36.6602 56.6325 36.6602 56.7968C36.6602 56.9861 36.7124 57.1525 36.817 57.2971C36.9265 57.4363 37.0759 57.5461 37.265 57.6256C37.4591 57.7003 37.6807 57.7376 37.9295 57.7376C38.278 57.7376 38.5891 57.6656 38.8628 57.5211C39.1367 57.3765 39.3656 57.1579 39.5498 56.864C39.739 56.5701 39.8759 56.2021 39.9605 55.7589L40.386 55.8933C40.2915 56.3909 40.1297 56.8091 39.9007 57.1477C39.6718 57.4864 39.388 57.7424 39.0495 57.9168C38.7111 58.0912 38.3278 58.1781 37.8996 58.1781ZM45.8715 58.1781C45.4734 58.1781 45.105 58.1136 44.7665 57.984C44.433 57.8496 44.1418 57.6629 43.8929 57.424C43.649 57.1851 43.4574 56.904 43.3179 56.5803C43.1835 56.2565 43.1163 55.9035 43.1163 55.52C43.1163 55.1365 43.1835 54.7835 43.3179 54.4597C43.4574 54.136 43.6515 53.8549 43.9003 53.616C44.1493 53.3771 44.4405 53.1929 44.7739 53.0635C45.1125 52.9291 45.4808 52.8619 45.879 52.8619C46.2772 52.8619 46.6406 52.9241 46.9691 53.0485C47.3027 53.173 47.5864 53.3621 47.8203 53.616L47.4769 53.9669C47.2579 53.7477 47.0165 53.5909 46.7526 53.4965C46.4888 53.4021 46.2051 53.3547 45.9014 53.3547C45.5779 53.3547 45.2792 53.4096 45.0054 53.5189C44.7366 53.6235 44.5002 53.7755 44.2961 53.9744C44.097 54.1685 43.9402 54.3973 43.8257 54.6613C43.7162 54.92 43.6614 55.2064 43.6614 55.52C43.6614 55.8288 43.7162 56.1147 43.8257 56.3787C43.9402 56.6427 44.097 56.8741 44.2961 57.0731C44.5002 57.2672 44.7366 57.4192 45.0054 57.5285C45.2792 57.6331 45.5754 57.6853 45.8939 57.6853C46.1926 57.6853 46.4739 57.6405 46.7377 57.5509C47.0065 57.4613 47.2529 57.3093 47.4769 57.0955L47.7905 57.5136C47.5416 57.7328 47.2504 57.8992 46.9169 58.0139C46.5834 58.1232 46.235 58.1781 45.8715 58.1781ZM47.2603 57.4464V55.52H47.7905V57.5136L47.2603 57.4464ZM51.6989 58.1333V57.2672L51.6765 57.1253V55.6768C51.6765 55.3435 51.5818 55.0869 51.3927 54.9077C51.2085 54.7285 50.9322 54.6389 50.5639 54.6389C50.3101 54.6389 50.0686 54.6811 49.8397 54.7659C49.6106 54.8507 49.4165 54.9627 49.2572 55.1019L49.0183 54.7061C49.2174 54.5371 49.4563 54.4075 49.7351 54.3179C50.0138 54.2235 50.3075 54.176 50.6162 54.176C51.1239 54.176 51.5146 54.3029 51.7884 54.5568C52.0672 54.8059 52.2066 55.1867 52.2066 55.6992V58.1333H51.6989ZM50.3474 58.1707C50.0537 58.1707 49.7973 58.1232 49.5783 58.0288C49.3642 57.9291 49.2 57.7947 49.0855 57.6256C48.971 57.4512 48.9138 57.2523 48.9138 57.0283C48.9138 56.824 48.961 56.64 49.0556 56.4757C49.1552 56.3067 49.3145 56.1723 49.5335 56.0725C49.7575 55.968 50.0562 55.9157 50.4295 55.9157H51.781V56.3115H50.4444C50.0661 56.3115 49.8023 56.3787 49.653 56.5131C49.5086 56.6475 49.4364 56.8144 49.4364 57.0133C49.4364 57.2373 49.5235 57.4165 49.6978 57.5509C49.872 57.6853 50.1159 57.7525 50.4295 57.7525C50.7282 57.7525 50.9845 57.6853 51.1986 57.5509C51.4176 57.4117 51.5769 57.2123 51.6765 56.9536L51.7959 57.3195C51.6963 57.5781 51.5221 57.7851 51.2732 57.9392C51.0293 58.0933 50.7207 58.1707 50.3474 58.1707ZM53.6464 58.1333V54.2133H54.1541V55.2811L54.1018 55.0944C54.2117 54.7957 54.3957 54.5691 54.6544 54.4149C54.9136 54.2555 55.2346 54.176 55.6176 54.176V54.6912C55.5978 54.6912 55.5781 54.6912 55.5578 54.6912C55.5381 54.6864 55.5184 54.6837 55.4981 54.6837C55.0853 54.6837 54.7616 54.8107 54.5274 55.0645C54.2938 55.3136 54.1765 55.6693 54.1765 56.1323V58.1333H53.6464ZM58.1093 58.1707C57.736 58.1707 57.4 58.0859 57.1013 57.9168C56.8074 57.7477 56.576 57.5136 56.4069 57.2149C56.2373 56.9115 56.153 56.5627 56.153 56.1696C56.153 55.7712 56.2373 55.4229 56.4069 55.1243C56.576 54.8256 56.8074 54.5941 57.1013 54.4299C57.4 54.2608 57.736 54.176 58.1093 54.176C58.4528 54.176 58.7589 54.2533 59.0277 54.4075C59.3013 54.5616 59.5178 54.7883 59.6773 55.0869C59.8416 55.3808 59.9237 55.7413 59.9237 56.1696C59.9237 56.5925 59.8437 56.9536 59.6848 57.2523C59.5253 57.5509 59.3088 57.7797 59.0352 57.9392C58.7664 58.0933 58.4576 58.1707 58.1093 58.1707ZM58.1466 57.7003C58.425 57.7003 58.6741 57.6379 58.8933 57.5136C59.1173 57.384 59.2912 57.2048 59.416 56.976C59.545 56.7419 59.6101 56.4731 59.6101 56.1696C59.6101 55.8608 59.545 55.592 59.416 55.3632C59.2912 55.1344 59.1173 54.9573 58.8933 54.8331C58.6741 54.7035 58.425 54.6389 58.1466 54.6389C57.8725 54.6389 57.6261 54.7035 57.4074 54.8331C57.1882 54.9573 57.0138 55.1344 56.8848 55.3632C56.7552 55.592 56.6906 55.8608 56.6906 56.1696C56.6906 56.4731 56.7552 56.7419 56.8848 56.976C57.0138 57.2048 57.1882 57.384 57.4074 57.5136C57.6261 57.6379 57.8725 57.7003 58.1466 57.7003ZM59.625 58.1333V56.9536L59.6773 56.1621L59.6026 55.3707V52.5931H60.1328V58.1333H59.625ZM63.2741 58.1707C62.8661 58.1707 62.5077 58.0859 62.1989 57.9168C61.8901 57.7424 61.649 57.5061 61.4746 57.2075C61.3002 56.904 61.2133 56.5579 61.2133 56.1696C61.2133 55.7813 61.2954 55.4379 61.4597 55.1392C61.6288 54.8405 61.8581 54.6064 62.1466 54.4373C62.4405 54.2629 62.769 54.176 63.1322 54.176C63.5008 54.176 63.8266 54.2608 64.1104 54.4299C64.3989 54.5941 64.6256 54.8283 64.7898 55.1317C64.9541 55.4304 65.0362 55.7765 65.0362 56.1696C65.0362 56.1947 65.0336 56.2219 65.0288 56.2517C65.0288 56.2768 65.0288 56.304 65.0288 56.3339H61.6165V55.9381H64.745L64.536 56.0949C64.536 55.8112 64.4736 55.56 64.3493 55.3408C64.2298 55.1168 64.0656 54.9424 63.8565 54.8181C63.6474 54.6939 63.4058 54.6315 63.1322 54.6315C62.8634 54.6315 62.6218 54.6939 62.408 54.8181C62.1941 54.9424 62.0272 55.1168 61.9077 55.3408C61.7882 55.5648 61.7285 55.8213 61.7285 56.1099V56.192C61.7285 56.4907 61.793 56.7547 61.9226 56.9835C62.057 57.2075 62.241 57.384 62.4752 57.5136C62.7141 57.6379 62.9856 57.7003 63.289 57.7003C63.528 57.7003 63.7493 57.6581 63.9536 57.5733C64.1626 57.4885 64.3418 57.3595 64.4912 57.1851L64.7898 57.5285C64.6154 57.7376 64.3968 57.8971 64.1328 58.0064C63.8741 58.1157 63.5877 58.1707 63.2741 58.1707ZM68.1162 54.176C68.4346 54.176 68.7136 54.2384 68.9525 54.3627C69.1962 54.4821 69.3856 54.6661 69.52 54.9152C69.6592 55.1643 69.729 55.4779 69.729 55.856V58.1333H69.1989V55.9083C69.1989 55.4949 69.0944 55.184 68.8853 54.9749C68.681 54.7611 68.3925 54.6539 68.0192 54.6539C67.7402 54.6539 67.4965 54.7109 67.2874 54.8256C67.0832 54.9349 66.9242 55.0971 66.8096 55.3109C66.7002 55.52 66.6453 55.7739 66.6453 56.0725V58.1333H66.1152V54.2133H66.6229V55.2885L66.5408 55.0869C66.665 54.8032 66.8645 54.5819 67.1381 54.4224C67.4117 54.2581 67.7381 54.176 68.1162 54.176Z" fill="white"/>
<path d="M10.7329 33.6V23.8933H11.5788L16.0161 31.4645H15.5724L19.9681 23.8933H20.814V33.6H19.8294V25.4325H20.0652L16.0161 32.3659H15.5308L11.454 25.4325H11.7174V33.6H10.7329ZM24.8918 28.2336H30.0225V29.1072H24.8918V28.2336ZM25.0028 32.7125H30.8406V33.6H23.9766V23.8933H30.6326V24.7808H25.0028V32.7125ZM33.2527 33.6V23.8933H37.4404C38.522 23.8933 39.3586 24.1106 39.9503 24.5451C40.5511 24.9796 40.8516 25.5943 40.8516 26.3893C40.8516 26.9163 40.7268 27.36 40.4772 27.7205C40.2369 28.0811 39.9041 28.3538 39.4788 28.5387C39.0628 28.7236 38.6052 28.816 38.106 28.816L38.3418 28.4832C38.9611 28.4832 39.4927 28.5803 39.9364 28.7744C40.3894 28.9593 40.7407 29.2412 40.9903 29.6203C41.2399 29.99 41.3647 30.4523 41.3647 31.0069C41.3647 31.8297 41.0596 32.4676 40.4495 32.9205C39.8486 33.3735 38.938 33.6 37.7178 33.6H33.2527ZM34.2788 32.7541H37.7039C38.5543 32.7541 39.2061 32.6108 39.6591 32.3243C40.1121 32.0284 40.3386 31.5616 40.3386 30.9237C40.3386 30.2951 40.1121 29.8375 39.6591 29.5509C39.2061 29.2551 38.5543 29.1072 37.7039 29.1072H34.1679V28.2613H37.3711C38.1476 28.2613 38.7485 28.1134 39.1738 27.8176C39.6082 27.5218 39.8255 27.0827 39.8255 26.5003C39.8255 25.9086 39.6082 25.4695 39.1738 25.1829C38.7485 24.8871 38.1476 24.7392 37.3711 24.7392H34.2788V32.7541ZM43.7068 33.6V23.8933H44.733V32.7125H50.1687V33.6H43.7068ZM52.7877 28.2336H57.9184V29.1072H52.7877V28.2336ZM52.8986 32.7125H58.7365V33.6H51.8725V23.8933H58.5285V24.7808H52.8986V32.7125ZM61.1483 33.6V23.8933H61.9941L68.6917 32.3243H68.248V23.8933H69.2603V33.6H68.4144L61.7307 25.1691H62.1744V33.6H61.1483ZM13.8542 47.4667V37.76H17.8062C18.8416 37.76 19.7476 37.968 20.5241 38.384C21.3099 38.7908 21.92 39.3593 22.3545 40.0896C22.789 40.8199 23.0062 41.6612 23.0062 42.6133C23.0062 43.5655 22.789 44.4068 22.3545 45.1371C21.92 45.8674 21.3099 46.4405 20.5241 46.8565C19.7476 47.2633 18.8416 47.4667 17.8062 47.4667H13.8542ZM14.8804 46.5792H17.7508C18.6105 46.5792 19.3547 46.4128 19.9833 46.08C20.6212 45.738 21.1157 45.2711 21.467 44.6795C21.8184 44.0786 21.994 43.3899 21.994 42.6133C21.994 41.8276 21.8184 41.1388 21.467 40.5472C21.1157 39.9556 20.6212 39.4933 19.9833 39.1605C19.3547 38.8185 18.6105 38.6475 17.7508 38.6475H14.8804V46.5792ZM26.2257 42.1003H31.3564V42.9739H26.2257V42.1003ZM26.3366 46.5792H32.1745V47.4667H25.3105V37.76H31.9665V38.6475H26.3366V46.5792ZM37.2628 47.5499C36.5417 47.5499 35.8484 47.4343 35.1828 47.2032C34.5265 46.9628 34.018 46.6578 33.6574 46.288L34.0596 45.4976C34.4017 45.8304 34.8593 46.1124 35.4324 46.3435C36.0148 46.5653 36.6249 46.6763 37.2628 46.6763C37.8729 46.6763 38.3675 46.6023 38.7465 46.4544C39.1348 46.2972 39.4168 46.0892 39.5924 45.8304C39.7773 45.5716 39.8697 45.285 39.8697 44.9707C39.8697 44.5916 39.7588 44.2866 39.5369 44.0555C39.3243 43.8244 39.0423 43.6441 38.691 43.5147C38.3398 43.376 37.9515 43.2558 37.5262 43.1541C37.101 43.0524 36.6758 42.9461 36.2505 42.8352C35.8253 42.715 35.4324 42.5579 35.0718 42.3637C34.7206 42.1696 34.434 41.9154 34.2121 41.6011C33.9995 41.2775 33.8932 40.8569 33.8932 40.3392C33.8932 39.8585 34.018 39.4194 34.2676 39.0219C34.5265 38.6151 34.9193 38.2916 35.4462 38.0512C35.9732 37.8016 36.6481 37.6768 37.4708 37.6768C38.0162 37.6768 38.557 37.7554 39.0932 37.9125C39.6294 38.0604 40.0916 38.2684 40.4798 38.5365L40.1332 39.3547C39.7172 39.0773 39.2734 38.874 38.802 38.7445C38.3398 38.6151 37.8914 38.5504 37.4569 38.5504C36.8745 38.5504 36.3938 38.629 36.0148 38.7861C35.6358 38.9433 35.3538 39.1559 35.1689 39.424C34.9933 39.6828 34.9054 39.9787 34.9054 40.3115C34.9054 40.6905 35.0118 40.9956 35.2244 41.2267C35.4462 41.4578 35.7329 41.638 36.0841 41.7675C36.4446 41.8969 36.8375 42.0124 37.2628 42.1141C37.6881 42.2158 38.1086 42.3268 38.5246 42.4469C38.9499 42.5671 39.3382 42.7243 39.6894 42.9184C40.05 43.1033 40.3366 43.3529 40.5492 43.6672C40.771 43.9815 40.882 44.3929 40.882 44.9013C40.882 45.3728 40.7526 45.8119 40.4937 46.2187C40.2349 46.6162 39.8374 46.9397 39.3012 47.1893C38.7742 47.4297 38.0948 47.5499 37.2628 47.5499ZM43.1178 47.4667V37.76H44.1439V47.4667H43.1178ZM51.5592 47.5499C50.8197 47.5499 50.1356 47.4297 49.5069 47.1893C48.8876 46.9397 48.3468 46.5931 47.8845 46.1493C47.4316 45.7056 47.0757 45.1833 46.8168 44.5824C46.5672 43.9815 46.4424 43.3252 46.4424 42.6133C46.4424 41.9015 46.5672 41.2452 46.8168 40.6443C47.0757 40.0434 47.4362 39.5211 47.8984 39.0773C48.3606 38.6336 48.9014 38.2916 49.5208 38.0512C50.1494 37.8016 50.8335 37.6768 51.5731 37.6768C52.3126 37.6768 52.9875 37.7924 53.5979 38.0235C54.2171 38.2546 54.744 38.6059 55.1787 39.0773L54.5408 39.7291C54.1339 39.3223 53.6853 39.0311 53.1955 38.8555C52.7055 38.6798 52.1786 38.592 51.6147 38.592C51.0138 38.592 50.4591 38.6937 49.9507 38.8971C49.4515 39.0912 49.0124 39.3732 48.6333 39.7429C48.2636 40.1035 47.9724 40.5287 47.7597 41.0187C47.5564 41.4994 47.4547 42.0309 47.4547 42.6133C47.4547 43.1865 47.5564 43.718 47.7597 44.208C47.9724 44.698 48.2636 45.1278 48.6333 45.4976C49.0124 45.8581 49.4515 46.1401 49.9507 46.3435C50.4591 46.5376 51.0092 46.6347 51.6008 46.6347C52.1555 46.6347 52.6778 46.5515 53.1677 46.3851C53.6672 46.2187 54.1248 45.9367 54.5408 45.5392L55.1232 46.3157C54.6608 46.7225 54.12 47.0322 53.5008 47.2448C52.8812 47.4482 52.2341 47.5499 51.5592 47.5499ZM54.1387 46.1909V42.6133H55.1232V46.3157L54.1387 46.1909ZM58.0272 47.4667V37.76H58.8731L65.5707 46.1909H65.1269V37.76H66.1392V47.4667H65.2933L58.6096 39.0357H59.0533V47.4667H58.0272Z" fill="white"/>
</g>
<defs>
<clipPath id="clip0_130_29">
<rect width="80" height="80" fill="white"/>
</clipPath>
</defs>
</svg>
