<svg width="80" height="80" viewBox="0 0 80 80" fill="none" xmlns="http://www.w3.org/2000/svg">
<g clip-path="url(#clip0_60_96)">
<path d="M80 0H0V80H80V0Z" fill="#DDA162"/>
<path d="M15 50.0667V41.8533H15.5045L19.3179 48.4357H19.048L22.8496 41.8533H23.3424L23.3541 50.0667H22.7675L22.7557 42.7568H22.92L19.3179 48.9755H19.0245L15.4107 42.7568H15.5867V50.0667H15ZM26.7457 45.6315H31.1926V46.1595H26.7457V45.6315ZM26.8161 49.5269H31.8849V50.0667H26.2177V41.8533H31.7089V42.3931H26.8161V49.5269ZM34.0667 50.0667V41.8533H37.4928C38.3767 41.8533 39.069 42.0332 39.5696 42.3931C40.0702 42.7529 40.3205 43.2731 40.3205 43.9536C40.3205 44.3995 40.2149 44.7749 40.0037 45.08C39.7925 45.3851 39.4992 45.6158 39.1237 45.7723C38.7561 45.9209 38.3415 45.9952 37.88 45.9952L38.0912 45.7605C38.6544 45.7605 39.1355 45.8427 39.5344 46.0069C39.9333 46.1712 40.2345 46.4098 40.4379 46.7227C40.6491 47.0356 40.7547 47.4267 40.7547 47.896C40.7547 48.5844 40.5043 49.1202 40.0037 49.5035C39.5031 49.8789 38.7443 50.0667 37.7275 50.0667H34.0667ZM34.6651 49.5504H37.7275C38.5175 49.5504 39.1198 49.4174 39.5344 49.1515C39.949 48.8777 40.1563 48.4436 40.1563 47.8491C40.1563 47.2624 39.949 46.8361 39.5344 46.5701C39.1198 46.2964 38.5175 46.1595 37.7275 46.1595H34.5947V45.6432H37.4693C38.1811 45.6432 38.7326 45.5063 39.1237 45.2325C39.5148 44.9588 39.7104 44.5481 39.7104 44.0005C39.7104 43.4608 39.5148 43.054 39.1237 42.7803C38.7326 42.5065 38.1811 42.3696 37.4693 42.3696H34.6651V49.5504ZM42.8895 50.0667V41.8533H43.4879V49.5269H48.2165V50.0667H42.8895ZM50.2811 45.6315H54.7282V46.1595H50.2811V45.6315ZM50.3515 49.5269H55.4205V50.0667H49.7531V41.8533H55.2445V42.3931H50.3515V49.5269ZM57.6018 50.0667V41.8533H58.1063L63.9613 49.3275H63.6914V41.8533H64.2898V50.0667H63.797L57.9303 42.5925H58.2002V50.0667H57.6018ZM17.6869 62.3333V54.12H20.9371C21.8053 54.12 22.568 54.296 23.2251 54.648C23.8821 55 24.3906 55.485 24.7504 56.1029C25.1181 56.7209 25.3019 57.4288 25.3019 58.2267C25.3019 59.0245 25.1181 59.7323 24.7504 60.3504C24.3906 60.9685 23.8821 61.4533 23.2251 61.8053C22.568 62.1573 21.8053 62.3333 20.9371 62.3333H17.6869ZM18.2853 61.7936H20.8901C21.6645 61.7936 22.3373 61.6411 22.9083 61.336C23.4793 61.0309 23.9213 60.6123 24.2341 60.0805C24.547 59.5408 24.7035 58.9228 24.7035 58.2267C24.7035 57.5305 24.547 56.9164 24.2341 56.3845C23.9213 55.8448 23.4793 55.4224 22.9083 55.1173C22.3373 54.8123 21.6645 54.6597 20.8901 54.6597H18.2853V61.7936ZM27.9087 57.8981H32.3556V58.4261H27.9087V57.8981ZM27.9791 61.7936H33.0479V62.3333H27.3807V54.12H32.8719V54.6597H27.9791V61.7936ZM37.3886 62.392C36.7785 62.392 36.1996 62.2901 35.6521 62.0869C35.1123 61.8757 34.6939 61.6059 34.3966 61.2773L34.6665 60.8315C34.9481 61.1211 35.3314 61.3675 35.8163 61.5707C36.3091 61.7664 36.8293 61.864 37.3769 61.864C37.9244 61.864 38.3703 61.7936 38.7145 61.6528C39.0665 61.504 39.3246 61.3088 39.4889 61.0661C39.661 60.8235 39.747 60.5536 39.747 60.2565C39.747 59.9045 39.6531 59.6229 39.4654 59.4117C39.2777 59.2005 39.0313 59.0324 38.7262 58.9072C38.4211 58.782 38.0887 58.6764 37.7289 58.5904C37.3691 58.5044 37.0053 58.4144 36.6377 58.3205C36.27 58.2188 35.9337 58.0898 35.6286 57.9333C35.3235 57.7769 35.0771 57.5657 34.8894 57.2997C34.7095 57.026 34.6195 56.674 34.6195 56.2437C34.6195 55.8526 34.7212 55.4928 34.9246 55.1643C35.128 54.8357 35.4448 54.5698 35.875 54.3664C36.3052 54.163 36.8567 54.0613 37.5294 54.0613C37.9831 54.0613 38.429 54.1278 38.867 54.2608C39.3129 54.3938 39.6923 54.5737 40.0051 54.8005L39.7822 55.2816C39.438 55.0469 39.0665 54.8748 38.6675 54.7653C38.2764 54.648 37.8971 54.5893 37.5294 54.5893C37.0053 54.5893 36.5712 54.6636 36.227 54.8123C35.8828 54.9609 35.6286 55.1604 35.4643 55.4107C35.3001 55.6532 35.2179 55.9269 35.2179 56.232C35.2179 56.584 35.3079 56.8656 35.4878 57.0768C35.6755 57.288 35.9219 57.4562 36.227 57.5813C36.5321 57.7065 36.8684 57.8121 37.2361 57.8981C37.6037 57.9842 37.9675 58.078 38.3273 58.1797C38.6871 58.2736 39.0195 58.3988 39.3246 58.5552C39.6297 58.7116 39.8761 58.9228 40.0638 59.1888C40.2515 59.4549 40.3454 59.7989 40.3454 60.2213C40.3454 60.6048 40.2398 60.9643 40.0286 61.3008C39.8174 61.6293 39.4928 61.8955 39.0547 62.0987C38.6245 62.2944 38.0691 62.392 37.3886 62.392ZM42.3797 62.3333V54.12H42.9781V62.3333H42.3797ZM49.3484 62.392C48.7304 62.392 48.1594 62.2901 47.6353 62.0869C47.1112 61.8757 46.6536 61.5824 46.2625 61.2069C45.8792 60.8315 45.582 60.3936 45.3708 59.8928C45.1596 59.3845 45.054 58.829 45.054 58.2267C45.054 57.6244 45.1596 57.0729 45.3708 56.5723C45.582 56.0638 45.8831 55.6219 46.2742 55.2464C46.6653 54.8709 47.119 54.5815 47.6353 54.3781C48.1594 54.1669 48.7343 54.0613 49.3601 54.0613C49.9546 54.0613 50.506 54.1552 51.0145 54.3429C51.5229 54.5307 51.9571 54.8123 52.3169 55.1877L51.9414 55.5867C51.5816 55.2347 51.1866 54.9844 50.7564 54.8357C50.334 54.6871 49.8724 54.6128 49.3718 54.6128C48.8399 54.6128 48.3471 54.7028 47.8934 54.8827C47.4397 55.0626 47.0447 55.3168 46.7084 55.6453C46.372 55.9739 46.11 56.3572 45.9222 56.7952C45.7423 57.2332 45.6524 57.7104 45.6524 58.2267C45.6524 58.7429 45.7423 59.2203 45.9222 59.6581C46.11 60.096 46.372 60.4795 46.7084 60.808C47.0447 61.1365 47.4397 61.3909 47.8934 61.5707C48.3471 61.7504 48.8399 61.8405 49.3718 61.8405C49.8568 61.8405 50.3144 61.7664 50.7446 61.6176C51.1827 61.4688 51.5816 61.2224 51.9414 60.8784L52.2817 61.336C51.914 61.688 51.4721 61.9541 50.9558 62.1339C50.4474 62.3061 49.9116 62.392 49.3484 62.392ZM51.7068 61.2773V58.2619H52.2817V61.336L51.7068 61.2773ZM54.9149 62.3333V54.12H55.4194L61.2743 61.5941H61.0045V54.12H61.6029V62.3333H61.1101L55.2434 54.8592H55.5133V62.3333H54.9149Z" fill="white"/>
<path d="M16.7144 39.9333L39.6477 17L62.581 39.9333" stroke="white"/>
<path d="M48.7144 18.0667V23.6667L52.981 27.9333V18.0667H48.7144Z" stroke="white"/>
</g>
<defs>
<clipPath id="clip0_60_96">
<rect width="80" height="80" fill="white"/>
</clipPath>
</defs>
</svg>
